<?xml version="1.0" encoding="iso-8859-1"?>
<!-- Generator: Adobe Illustrator 24.3.0, SVG Export Plug-In . SVG Version: 6.00 Build 0)  -->
<svg version="1.1" id="Layer_1" xmlns="http://www.w3.org/2000/svg" xmlns:xlink="http://www.w3.org/1999/xlink" x="0px" y="0px"
	 viewBox="0 0 64 64" style="enable-background:new 0 0 64 64;" xml:space="preserve">
<linearGradient id="SVGID_1_" gradientUnits="userSpaceOnUse" x1="32" y1="736.083" x2="32" y2="781.676" gradientTransform="matrix(1 0 0 1 0 -726)">
	<stop  offset="0" style="stop-color:#1A6DFF"/>
	<stop  offset="1" style="stop-color:#C822FF"/>
</linearGradient>
<path style="fill:url(#SVGID_1_);" d="M50,56H14c-2.757,0-5-2.243-5-5V15c0-2.757,2.243-5,5-5h36c2.757,0,5,2.243,5,5v36
	C55,53.757,52.757,56,50,56z M14,12c-1.654,0-3,1.346-3,3v36c0,1.654,1.346,3,3,3h36c1.654,0,3-1.346,3-3V15c0-1.654-1.346-3-3-3H14
	z"/>
<linearGradient id="SVGID_2_" gradientUnits="userSpaceOnUse" x1="32" y1="18" x2="32" y2="47.2155">
	<stop  offset="0" style="stop-color:#6DC7FF"/>
	<stop  offset="1" style="stop-color:#E6ABFF"/>
</linearGradient>
<path style="fill:url(#SVGID_2_);" d="M32,18c-9.389,0-17,6.268-17,14c0,4.859,3.008,9.136,7.571,11.647
	c-0.247,0.777-0.575,1.478-0.915,2.079c-0.469,0.831,0.393,1.787,1.266,1.402c1.449-0.639,2.93-1.463,3.641-1.872
	C28.271,45.731,30.096,46,32,46c9.389,0,17-6.268,17-14S41.389,18,32,18z"/>
</svg>